<?xml version="1.0" encoding="UTF-8" standalone="no"?>
<svg width="150px" height="150px" viewBox="0 0 150 150" version="1.1" xmlns="http://www.w3.org/2000/svg" xmlns:xlink="http://www.w3.org/1999/xlink" xmlns:sketch="http://www.bohemiancoding.com/sketch/ns">
    <!-- Generator: Sketch 3.2.2 (9983) - http://www.bohemiancoding.com/sketch -->
    <title>Slice 1</title>
    <desc>Created with Sketch.</desc>
    <defs></defs>
    <g id="Page-1" stroke="none" stroke-width="1" fill="none" fill-rule="evenodd" sketch:type="MSPage">
        <g id="negotiation" sketch:type="MSLayerGroup" transform="translate(13.000000, 35.828125)">
            <g id="Group" sketch:type="MSShapeGroup">
                <path d="M23.6060606,16.28 C28.5757576,16.7733333 32.6757576,12.7033333 32.1787879,7.77 C31.8060606,4.19333333 28.8242424,1.23333333 25.2212121,0.863333333 C20.2515152,0.37 16.1515152,4.44 16.6484848,9.37333333 C17.0212121,12.95 20.0030303,15.91 23.6060606,16.28 L23.6060606,16.28 Z" id="Shape" fill="#FFFFFF"></path>
                <path d="M29.0727273,51.8 L18.0151515,51.8 C14.0393939,51.8 10.6848485,49.8266667 9.69090909,45.3866667 L6.21212121,28.3666667 C5.34242424,24.1733333 -0.621212121,25.6533333 0.124242424,29.7233333 L3.85151515,47.36 C5.34242424,54.1433333 11.1818182,57.9666667 17.0212121,57.9666667 L29.0727273,57.9666667 C33.4212121,57.9666667 33.4212121,51.8 29.0727273,51.8 L29.0727273,51.8 Z" id="Shape" fill="#FF4343"></path>
                <path d="M98.4,15.7866667 C102.00303,15.4166667 104.984848,12.4566667 105.357576,8.88 C105.854545,3.94666667 101.754545,-0.123333333 96.7848485,0.37 C93.1818182,0.863333333 90.3242424,3.7 89.9515152,7.4 C89.4545455,12.21 93.5545455,16.28 98.4,15.7866667 L98.4,15.7866667 Z" id="Shape" fill="#FFFFFF"></path>
                <path d="M109.954545,41.81 L106.848485,24.6666667 C105.606061,17.6366667 100.263636,16.0333333 96.9090909,18.2533333 C96.4121212,18.5 95.9151515,18.6233333 95.5424242,18.9933333 L86.969697,25.53 L74.0484848,25.7766667 C72.5575758,25.7766667 71.3151515,26.8866667 71.4393939,28.3666667 C71.4393939,31.6966667 76.7818182,30.8333333 78.2727273,30.8333333 L47.2121212,30.8333333 C48.7030303,30.8333333 49.9454545,30.0933333 49.9454545,28.6133333 C49.9454545,27.1333333 48.8272727,26.1466667 47.3363636,26.1466667 L35.4090909,26.0233333 L26.8363636,19.4866667 C26.3393939,19.1166667 26.3393939,19.24 25.469697,18.7466667 C22.1151515,16.5266667 16.7727273,18.13 15.4060606,25.16 L12.0515152,41.9333333 C10.6848485,47.6066667 14.5363636,50.5666667 18.5121212,50.5666667 L34.7878788,50.5666667 L34.7878788,69.4366667 C34.7878788,75.2333333 43.4848485,75.2333333 43.4848485,69.56 L43.4848485,45.88 C43.4848485,43.0433333 41.4969697,40.0833333 37.6454545,40.0833333 L24.4757576,40.0833333 L27.5818182,27.1333333 L32.4272727,30.8333333 C32.9242424,31.2033333 33.4212121,31.08 34.0424242,31.08 L43.7333333,30.8333333 L32.5515152,30.8333333 C30.8121212,30.8333333 29.4454545,32.19 29.4454545,33.9166667 C29.4454545,35.6433333 30.8121212,37 32.5515152,37 L50.9393939,37 L50.9393939,72.7666667 L70.8181818,72.7666667 L70.8181818,37 L87.9636364,37 C89.7030303,37 91.069697,35.6433333 91.069697,33.9166667 C91.069697,32.19 89.7030303,30.8333333 87.9636364,30.8333333 L74.0484848,30.8333333 L87.8393939,30.8333333 C88.4606061,30.8333333 88.9575758,30.5866667 89.4545455,30.2166667 L94.3,26.5166667 L97.4060606,39.4666667 L84.1121212,39.4666667 C80.2606061,39.4666667 78.1484848,42.55 78.1484848,45.3866667 L78.1484848,69.0666667 C78.1484848,74.8633333 86.8454545,74.74 86.8454545,68.9433333 L86.8454545,50.4433333 L103.493939,50.4433333 C107.469697,50.5666667 111.321212,47.4833333 109.954545,41.81 L109.954545,41.81 Z" id="Shape" fill="#FFFFFF"></path>
                <path d="M115.793939,28.12 L112.190909,45.2633333 C111.19697,49.7033333 107.842424,51.8 103.866667,51.8 L92.8090909,51.8 C88.4606061,51.8 88.4606061,57.9666667 92.8090909,57.9666667 L104.860606,57.9666667 C110.7,57.9666667 116.539394,53.8966667 118.030303,47.1133333 L121.757576,29.23 C122.627273,25.16 116.663636,23.9266667 115.793939,28.12 L115.793939,28.12 Z" id="Shape" fill="#FF4343"></path>
            </g>
        </g>
    </g>
</svg>