<?xml version="1.0" encoding="UTF-8" standalone="no"?>
<svg width="150px" height="150px" viewBox="0 0 150 150" version="1.1" xmlns="http://www.w3.org/2000/svg" xmlns:xlink="http://www.w3.org/1999/xlink" xmlns:sketch="http://www.bohemiancoding.com/sketch/ns">
    <!-- Generator: Sketch 3.2.2 (9983) - http://www.bohemiancoding.com/sketch -->
    <title>Slice 1</title>
    <desc>Created with Sketch.</desc>
    <defs></defs>
    <g id="Page-1" stroke="none" stroke-width="1" fill="none" fill-rule="evenodd" sketch:type="MSPage">
        <g id="recherche" sketch:type="MSLayerGroup" transform="translate(38.000000, 35.000000)">
            <g id="Group" sketch:type="MSShapeGroup">
                <g transform="translate(16.650000, 27.407407)" id="Shape">
                    <path d="M26.9175,3.47160494 C21.1825,-1.18765432 12.765,-0.365432099 8.0475,5.29876543 C3.33,10.962963 4.1625,19.2765432 9.8975,23.9358025 C15.6325,28.5950617 24.05,27.7728395 28.7675,22.108642 C33.485,16.4444444 32.6525,8.1308642 26.9175,3.47160494 L26.9175,3.47160494 Z M11.9325,21.5604938 C7.585,17.9975309 6.9375,11.6938272 10.545,7.4 C14.1525,3.10617284 20.535,2.46666667 24.8825,6.02962963 C29.23,9.59259259 29.8775,15.8962963 26.27,20.1901235 C22.755,24.3925926 16.28,25.0320988 11.9325,21.5604938 L11.9325,21.5604938 Z" fill="#FF4343"></path>
                    <path d="M8.4175,25.6716049 L7.77,25.1234568 C7.4925,24.8493827 7.215,24.4839506 6.9375,24.2098765 L0.2775,32.2493827 L3.6075,34.8987654 L10.2675,26.8592593 C9.8975,26.6765432 9.5275,26.4024691 9.1575,26.2197531 L9.1575,26.2197531 L8.4175,25.6716049 L8.4175,25.6716049 Z" fill="#FFFFFF"></path>
                </g>
                <path d="M3.33,73.817284 L70.67,73.817284 C72.52,73.817284 74,72.3555556 74,70.5283951 L74,4.01975309 C74,2.19259259 72.52,0.730864198 70.67,0.730864198 L3.33,0.730864198 C1.48,0.730864198 0,2.19259259 0,4.01975309 L0,70.5283951 C0,72.3555556 1.48,73.817284 3.33,73.817284 L3.33,73.817284 Z M60.2175,6.76049383 C62.53,6.76049383 64.38,8.58765432 64.38,10.8716049 C64.38,13.1555556 62.53,14.982716 60.2175,14.982716 C57.905,14.982716 56.055,13.1555556 56.055,10.8716049 C56.055,8.58765432 57.905,6.76049383 60.2175,6.76049383 L60.2175,6.76049383 Z M44.4925,6.76049383 C46.805,6.76049383 48.655,8.58765432 48.655,10.8716049 C48.655,13.1555556 46.805,14.982716 44.4925,14.982716 C42.18,14.982716 40.33,13.1555556 40.33,10.8716049 C40.33,8.58765432 42.18,6.76049383 44.4925,6.76049383 L44.4925,6.76049383 Z M6.66,20.9209877 L67.4325,20.9209877 L67.4325,67.2395062 L6.66,67.2395062 L6.66,20.9209877 L6.66,20.9209877 Z" id="Shape" fill="#FFFFFF"></path>
            </g>
        </g>
    </g>
</svg>