<?xml version="1.0" encoding="UTF-8" standalone="no"?>
<svg width="150px" height="150px" viewBox="0 0 150 150" version="1.1" xmlns="http://www.w3.org/2000/svg" xmlns:xlink="http://www.w3.org/1999/xlink" xmlns:sketch="http://www.bohemiancoding.com/sketch/ns">
    <!-- Generator: Sketch 3.2.2 (9983) - http://www.bohemiancoding.com/sketch -->
    <title>Slice 1</title>
    <desc>Created with Sketch.</desc>
    <defs></defs>
    <g id="Page-1" stroke="none" stroke-width="1" fill="none" fill-rule="evenodd" sketch:type="MSPage">
        <g id="teacher" sketch:type="MSLayerGroup" transform="translate(32.000000, 28.000000)">
            <path d="M21.2428515,39.1523737 C21.2428515,44.5863636 16.8747327,48.9797475 11.5078218,48.9797475 C6.10855446,48.9797475 1.75235644,44.5863636 1.75235644,39.1523737 C1.75065347,33.730404 6.10770297,29.3258586 11.5078218,29.3258586 C16.8747327,29.3258586 21.2428515,33.730404 21.2428515,39.1523737 L21.2428515,39.1523737 Z" id="Shape" fill="#FFFFFF" sketch:type="MSShapeGroup"></path>
            <path d="M63.9065149,39.1523737 C63.9065149,44.5863636 68.2754851,48.9797475 73.6406931,48.9797475 C79.0408119,48.9797475 83.4097822,44.5863636 83.4097822,39.1523737 C83.4089307,33.730404 79.0399604,29.3258586 73.6406931,29.3258586 C68.2754851,29.3258586 63.9065149,33.730404 63.9065149,39.1523737 L63.9065149,39.1523737 Z" id="Shape" fill="#FFFFFF" sketch:type="MSShapeGroup"></path>
            <path d="M37.1860594,72.9265657 C36.9646733,70.8350505 37.7633663,68.9015152 39.1155248,67.4934343 C30.8663366,65.9050505 27.4859406,61.8482323 24.5483168,58.1794949 C23.1169703,56.379899 21.7545941,54.669596 19.9468911,53.4624242 C19.8915446,53.4289394 19.8251287,53.4289394 19.781703,53.3834343 C18.2396634,52.0972727 16.2880594,51.2824747 14.1389109,51.2824747 L8.87162376,51.2824747 C3.99176238,51.2824747 0,55.2963636 0,60.215202 L0,85 L23.0054257,85 L23.0054257,68.9805051 C26.3645347,71.9426263 31.1115644,74.7596465 38.4053861,75.99 C37.7965743,75.0962121 37.3188911,74.0890909 37.1860594,72.9265657 L37.1860594,72.9265657 Z" id="Shape" fill="#FFFFFF" sketch:type="MSShapeGroup"></path>
            <path d="M76.2913663,51.2824747 L71.0130099,51.2824747 C68.8740792,51.2824747 66.9122574,52.0981313 65.3821386,53.3842929 C65.3276436,53.4289394 65.2586733,53.4289394 65.216099,53.4615657 C63.408396,54.6687374 62.0443168,56.369596 60.603604,58.1803535 C57.3773267,62.205404 53.718495,66.799697 43.4853465,67.939899 C41.1684554,68.2077778 39.505505,70.309596 39.760099,72.6458081 C39.9925545,74.8257576 41.8232475,76.4356061 43.9511089,76.4356061 C44.1069307,76.4356061 44.261901,76.4227273 44.4287921,76.4132828 C53.0986139,75.4405051 58.4646733,72.3324242 62.1567129,69.034596 L62.1567129,85 L85.1485149,85 L85.1485149,60.215202 C85.1485149,55.2963636 81.1567525,51.2824747 76.2913663,51.2824747 L76.2913663,51.2824747 Z" id="Shape" fill="#FFFFFF" sketch:type="MSShapeGroup"></path>
            <path d="M36.3831089,22.8993434 L36.3831089,13.0676768 C36.3831089,10.5262626 38.3355644,8.46479798 40.7444158,8.46479798 L50.283604,8.46479798 L50.283604,6.12085859 C50.283604,2.97671717 47.8670891,0.427575758 44.8885941,0.427575758 L19.8702574,0.427575758 C16.8917624,0.427575758 14.4752475,2.97671717 14.4752475,6.12085859 L14.4752475,18.2861616 C14.4752475,21.430303 16.8917624,23.9811616 19.8702574,23.9811616 L23.9982574,23.9811616 L23.9982574,30.7030303 C23.9982574,31.0739394 24.5040396,31.3358081 24.7654455,31.025 C26.7340792,28.6776263 28.6984554,26.3302525 30.6670891,23.9820202 L36.5099802,23.9820202 C36.4290891,23.6334343 36.3831089,23.2728283 36.3831089,22.8993434 L36.3831089,22.8993434 Z" id="Shape" fill="#FFFFFF" sketch:type="MSShapeGroup"></path>
            <path d="M38.8592277,14.6886869 L38.8592277,25.6639899 C38.8592277,27.9564141 40.620099,29.8152525 42.7930891,29.8152525 L53.1607723,29.8152525 C54.5955248,31.5264141 56.0285743,33.2375758 57.4624752,34.949596 C57.6549109,35.1779798 58.021901,34.9865152 58.021901,34.7169192 L58.021901,29.8161111 L64.5144752,29.8161111 C66.6866139,29.8161111 68.4474851,27.9572727 68.4474851,25.6648485 L68.4474851,14.6886869 C68.4474851,12.3971212 66.6866139,10.5374242 64.5144752,10.5374242 L42.7930891,10.5374242 C40.620099,10.5365657 38.8592277,12.3962626 38.8592277,14.6886869 L38.8592277,14.6886869 Z" id="Shape" fill="#FF4343" sketch:type="MSShapeGroup"></path>
        </g>
    </g>
</svg>